<svg width="272" height="66" viewBox="0 0 272 66" fill="none" xmlns="http://www.w3.org/2000/svg">
<ellipse cx="69.5" cy="-76.5" rx="202.5" ry="142.5" fill="#E75454"/>
<path d="M39.1855 27.0146L37.0908 29.2363V35H33.8789V16.5156H37.0908V25.1865L38.8682 22.9902L44.2764 16.5156H48.1611L41.293 24.7041L48.5547 35H44.7461L39.1855 27.0146ZM58 33.6543C57.0944 34.7207 55.8079 35.2539 54.1406 35.2539C52.651 35.2539 51.5212 34.818 50.751 33.9463C49.9893 33.0745 49.6084 31.8135 49.6084 30.1631V21.2637H52.6934V30.125C52.6934 31.8685 53.417 32.7402 54.8643 32.7402C56.3623 32.7402 57.3737 32.2028 57.8984 31.1279V21.2637H60.9834V35H58.0762L58 33.6543ZM67.4072 35H64.3223V15.5H67.4072V35ZM79.0996 33.6543C78.194 34.7207 76.9076 35.2539 75.2402 35.2539C73.7507 35.2539 72.6208 34.818 71.8506 33.9463C71.0889 33.0745 70.708 31.8135 70.708 30.1631V21.2637H73.793V30.125C73.793 31.8685 74.5166 32.7402 75.9639 32.7402C77.4619 32.7402 78.4733 32.2028 78.998 31.1279V21.2637H82.083V35H79.1758L79.0996 33.6543ZM93.4326 35C93.2972 34.7376 93.1787 34.3102 93.0771 33.7178C92.0954 34.7419 90.8936 35.2539 89.4717 35.2539C88.0921 35.2539 86.9665 34.8604 86.0947 34.0732C85.223 33.2861 84.7871 32.3128 84.7871 31.1533C84.7871 29.6891 85.3288 28.5677 86.4121 27.7891C87.5039 27.002 89.0612 26.6084 91.084 26.6084H92.9756V25.707C92.9756 24.9961 92.7767 24.429 92.3789 24.0059C91.9811 23.5742 91.376 23.3584 90.5635 23.3584C89.861 23.3584 89.2855 23.5361 88.8369 23.8916C88.3883 24.2386 88.1641 24.6829 88.1641 25.2246H85.0791C85.0791 24.4714 85.3288 23.7689 85.8281 23.1172C86.3275 22.457 87.0046 21.9408 87.8594 21.5684C88.7227 21.196 89.6833 21.0098 90.7412 21.0098C92.3493 21.0098 93.6315 21.416 94.5879 22.2285C95.5443 23.0326 96.0352 24.1667 96.0605 25.6309V31.8262C96.0605 33.0618 96.234 34.0479 96.5811 34.7842V35H93.4326ZM90.043 32.7783C90.6523 32.7783 91.2236 32.6302 91.7568 32.334C92.2985 32.0378 92.7048 31.64 92.9756 31.1406V28.5508H91.3125C90.1699 28.5508 89.3109 28.7497 88.7354 29.1475C88.1598 29.5452 87.8721 30.1081 87.8721 30.8359C87.8721 31.4284 88.0667 31.9023 88.4561 32.2578C88.8538 32.6048 89.3828 32.7783 90.043 32.7783ZM86.3486 17.6582C86.3486 17.235 86.4883 16.8796 86.7676 16.5918C87.0553 16.304 87.4489 16.1602 87.9482 16.1602C88.4476 16.1602 88.8411 16.304 89.1289 16.5918C89.4167 16.8796 89.5605 17.235 89.5605 17.6582C89.5605 18.0814 89.4167 18.4368 89.1289 18.7246C88.8411 19.0124 88.4476 19.1562 87.9482 19.1562C87.4489 19.1562 87.0553 19.0124 86.7676 18.7246C86.4883 18.4368 86.3486 18.0814 86.3486 17.6582ZM92.1504 17.6709C92.1504 17.2477 92.29 16.8923 92.5693 16.6045C92.8571 16.3167 93.2507 16.1729 93.75 16.1729C94.2493 16.1729 94.6429 16.3167 94.9307 16.6045C95.2184 16.8923 95.3623 17.2477 95.3623 17.6709C95.3623 18.0941 95.2184 18.4495 94.9307 18.7373C94.6429 19.0251 94.2493 19.1689 93.75 19.1689C93.2507 19.1689 92.8571 19.0251 92.5693 18.7373C92.29 18.4495 92.1504 18.0941 92.1504 17.6709ZM111.32 28.2715C111.32 30.3958 110.838 32.0928 109.873 33.3623C108.908 34.6234 107.613 35.2539 105.988 35.2539C104.482 35.2539 103.276 34.7588 102.37 33.7686V40.2812H99.2852V21.2637H102.129L102.256 22.6602C103.161 21.5599 104.393 21.0098 105.95 21.0098C107.626 21.0098 108.938 21.6361 109.886 22.8887C110.842 24.1328 111.32 25.8636 111.32 28.0811V28.2715ZM108.248 28.0049C108.248 26.6338 107.973 25.5462 107.423 24.7422C106.881 23.9382 106.103 23.5361 105.087 23.5361C103.826 23.5361 102.92 24.0566 102.37 25.0977V31.1914C102.929 32.2578 103.843 32.791 105.112 32.791C106.094 32.791 106.86 32.3975 107.41 31.6104C107.969 30.8148 108.248 29.613 108.248 28.0049ZM125.971 28.2715C125.971 30.3958 125.488 32.0928 124.523 33.3623C123.559 34.6234 122.264 35.2539 120.639 35.2539C119.132 35.2539 117.926 34.7588 117.021 33.7686V40.2812H113.936V21.2637H116.779L116.906 22.6602C117.812 21.5599 119.043 21.0098 120.601 21.0098C122.276 21.0098 123.588 21.6361 124.536 22.8887C125.493 24.1328 125.971 25.8636 125.971 28.0811V28.2715ZM122.898 28.0049C122.898 26.6338 122.623 25.5462 122.073 24.7422C121.532 23.9382 120.753 23.5361 119.737 23.5361C118.476 23.5361 117.571 24.0566 117.021 25.0977V31.1914C117.579 32.2578 118.493 32.791 119.763 32.791C120.744 32.791 121.51 32.3975 122.061 31.6104C122.619 30.8148 122.898 29.613 122.898 28.0049ZM131.874 35H128.789V21.2637H131.874V35ZM128.599 17.6963C128.599 17.2223 128.747 16.8288 129.043 16.5156C129.348 16.2025 129.779 16.0459 130.338 16.0459C130.896 16.0459 131.328 16.2025 131.633 16.5156C131.938 16.8288 132.09 17.2223 132.09 17.6963C132.09 18.1618 131.938 18.5511 131.633 18.8643C131.328 19.1689 130.896 19.3213 130.338 19.3213C129.779 19.3213 129.348 19.1689 129.043 18.8643C128.747 18.5511 128.599 18.1618 128.599 17.6963Z" fill="white"/>
</svg>
