<svg width="275" height="84" viewBox="0 0 275 84" fill="none" xmlns="http://www.w3.org/2000/svg">
<ellipse cx="72.5" cy="-58.5" rx="202.5" ry="142.5" fill="#E75454"/>
<path d="M42.1855 45.0146L40.0908 47.2363V53H36.8789V34.5156H40.0908V43.1865L41.8682 40.9902L47.2764 34.5156H51.1611L44.293 42.7041L51.5547 53H47.7461L42.1855 45.0146ZM61 51.6543C60.0944 52.7207 58.8079 53.2539 57.1406 53.2539C55.651 53.2539 54.5212 52.818 53.751 51.9463C52.9893 51.0745 52.6084 49.8135 52.6084 48.1631V39.2637H55.6934V48.125C55.6934 49.8685 56.417 50.7402 57.8643 50.7402C59.3623 50.7402 60.3737 50.2028 60.8984 49.1279V39.2637H63.9834V53H61.0762L61 51.6543ZM70.4072 53H67.3223V33.5H70.4072V53ZM82.0996 51.6543C81.194 52.7207 79.9076 53.2539 78.2402 53.2539C76.7507 53.2539 75.6208 52.818 74.8506 51.9463C74.0889 51.0745 73.708 49.8135 73.708 48.1631V39.2637H76.793V48.125C76.793 49.8685 77.5166 50.7402 78.9639 50.7402C80.4619 50.7402 81.4733 50.2028 81.998 49.1279V39.2637H85.083V53H82.1758L82.0996 51.6543ZM96.4326 53C96.2972 52.7376 96.1787 52.3102 96.0771 51.7178C95.0954 52.7419 93.8936 53.2539 92.4717 53.2539C91.0921 53.2539 89.9665 52.8604 89.0947 52.0732C88.223 51.2861 87.7871 50.3128 87.7871 49.1533C87.7871 47.6891 88.3288 46.5677 89.4121 45.7891C90.5039 45.002 92.0612 44.6084 94.084 44.6084H95.9756V43.707C95.9756 42.9961 95.7767 42.429 95.3789 42.0059C94.9811 41.5742 94.376 41.3584 93.5635 41.3584C92.861 41.3584 92.2855 41.5361 91.8369 41.8916C91.3883 42.2386 91.1641 42.6829 91.1641 43.2246H88.0791C88.0791 42.4714 88.3288 41.7689 88.8281 41.1172C89.3275 40.457 90.0046 39.9408 90.8594 39.5684C91.7227 39.196 92.6833 39.0098 93.7412 39.0098C95.3493 39.0098 96.6315 39.416 97.5879 40.2285C98.5443 41.0326 99.0352 42.1667 99.0605 43.6309V49.8262C99.0605 51.0618 99.234 52.0479 99.5811 52.7842V53H96.4326ZM93.043 50.7783C93.6523 50.7783 94.2236 50.6302 94.7568 50.334C95.2985 50.0378 95.7048 49.64 95.9756 49.1406V46.5508H94.3125C93.1699 46.5508 92.3109 46.7497 91.7354 47.1475C91.1598 47.5452 90.8721 48.1081 90.8721 48.8359C90.8721 49.4284 91.0667 49.9023 91.4561 50.2578C91.8538 50.6048 92.3828 50.7783 93.043 50.7783ZM89.3486 35.6582C89.3486 35.235 89.4883 34.8796 89.7676 34.5918C90.0553 34.304 90.4489 34.1602 90.9482 34.1602C91.4476 34.1602 91.8411 34.304 92.1289 34.5918C92.4167 34.8796 92.5605 35.235 92.5605 35.6582C92.5605 36.0814 92.4167 36.4368 92.1289 36.7246C91.8411 37.0124 91.4476 37.1562 90.9482 37.1562C90.4489 37.1562 90.0553 37.0124 89.7676 36.7246C89.4883 36.4368 89.3486 36.0814 89.3486 35.6582ZM95.1504 35.6709C95.1504 35.2477 95.29 34.8923 95.5693 34.6045C95.8571 34.3167 96.2507 34.1729 96.75 34.1729C97.2493 34.1729 97.6429 34.3167 97.9307 34.6045C98.2184 34.8923 98.3623 35.2477 98.3623 35.6709C98.3623 36.0941 98.2184 36.4495 97.9307 36.7373C97.6429 37.0251 97.2493 37.1689 96.75 37.1689C96.2507 37.1689 95.8571 37.0251 95.5693 36.7373C95.29 36.4495 95.1504 36.0941 95.1504 35.6709ZM114.32 46.2715C114.32 48.3958 113.838 50.0928 112.873 51.3623C111.908 52.6234 110.613 53.2539 108.988 53.2539C107.482 53.2539 106.276 52.7588 105.37 51.7686V58.2812H102.285V39.2637H105.129L105.256 40.6602C106.161 39.5599 107.393 39.0098 108.95 39.0098C110.626 39.0098 111.938 39.6361 112.886 40.8887C113.842 42.1328 114.32 43.8636 114.32 46.0811V46.2715ZM111.248 46.0049C111.248 44.6338 110.973 43.5462 110.423 42.7422C109.881 41.9382 109.103 41.5361 108.087 41.5361C106.826 41.5361 105.92 42.0566 105.37 43.0977V49.1914C105.929 50.2578 106.843 50.791 108.112 50.791C109.094 50.791 109.86 50.3975 110.41 49.6104C110.969 48.8148 111.248 47.613 111.248 46.0049ZM128.971 46.2715C128.971 48.3958 128.488 50.0928 127.523 51.3623C126.559 52.6234 125.264 53.2539 123.639 53.2539C122.132 53.2539 120.926 52.7588 120.021 51.7686V58.2812H116.936V39.2637H119.779L119.906 40.6602C120.812 39.5599 122.043 39.0098 123.601 39.0098C125.276 39.0098 126.588 39.6361 127.536 40.8887C128.493 42.1328 128.971 43.8636 128.971 46.0811V46.2715ZM125.898 46.0049C125.898 44.6338 125.623 43.5462 125.073 42.7422C124.532 41.9382 123.753 41.5361 122.737 41.5361C121.476 41.5361 120.571 42.0566 120.021 43.0977V49.1914C120.579 50.2578 121.493 50.791 122.763 50.791C123.744 50.791 124.51 50.3975 125.061 49.6104C125.619 48.8148 125.898 47.613 125.898 46.0049ZM134.874 53H131.789V39.2637H134.874V53ZM131.599 35.6963C131.599 35.2223 131.747 34.8288 132.043 34.5156C132.348 34.2025 132.779 34.0459 133.338 34.0459C133.896 34.0459 134.328 34.2025 134.633 34.5156C134.938 34.8288 135.09 35.2223 135.09 35.6963C135.09 36.1618 134.938 36.5511 134.633 36.8643C134.328 37.1689 133.896 37.3213 133.338 37.3213C132.779 37.3213 132.348 37.1689 132.043 36.8643C131.747 36.5511 131.599 36.1618 131.599 35.6963Z" fill="white"/>
</svg>
